<?xml version="1.0" encoding="UTF-8" standalone="no"?>
<!-- Created with Inkscape (http://www.inkscape.org/) -->

<svg
   width="1751.811"
   height="2318.7402"
   id="svg2"
   version="1.1"
   inkscape:version="1.4.2 (ebf0e940, 2025-05-08)"
   sodipodi:docname="Ubuntu-TW_Logo_stiker-BC.svg"
   style="enable-background:new"
   inkscape:export-filename="Ubuntu-TW_Logo.png"
   inkscape:export-xdpi="26.290138"
   inkscape:export-ydpi="26.290138"
   xmlns:inkscape="http://www.inkscape.org/namespaces/inkscape"
   xmlns:sodipodi="http://sodipodi.sourceforge.net/DTD/sodipodi-0.dtd"
   xmlns="http://www.w3.org/2000/svg"
   xmlns:svg="http://www.w3.org/2000/svg"
   xmlns:rdf="http://www.w3.org/1999/02/22-rdf-syntax-ns#"
   xmlns:cc="http://creativecommons.org/ns#"
   xmlns:dc="http://purl.org/dc/elements/1.1/">
  <defs
     id="defs4" />
  <sodipodi:namedview
     id="base"
     pagecolor="#ffffff"
     bordercolor="#666666"
     borderopacity="1.0"
     inkscape:pageopacity="0.0"
     inkscape:pageshadow="2"
     inkscape:zoom="0.2557667"
     inkscape:cx="897.30211"
     inkscape:cy="1172.9439"
     inkscape:document-units="px"
     inkscape:current-layer="layer2"
     showgrid="false"
     units="cm"
     borderlayer="true"
     inkscape:object-paths="true"
     inkscape:snap-intersection-paths="true"
     inkscape:snap-smooth-nodes="true"
     inkscape:snap-midpoints="true"
     inkscape:snap-object-midpoints="true"
     inkscape:snap-center="true"
     inkscape:object-nodes="true"
     showguides="false"
     inkscape:guide-bbox="true"
     inkscape:snap-bbox="true"
     inkscape:bbox-nodes="true"
     inkscape:snap-bbox-edge-midpoints="true"
     inkscape:bbox-paths="true"
     inkscape:snap-bbox-midpoints="true"
     inkscape:snap-nodes="true"
     inkscape:snap-to-guides="false"
     inkscape:window-width="1400"
     inkscape:window-height="847"
     inkscape:window-x="50"
     inkscape:window-y="53"
     inkscape:window-maximized="0"
     inkscape:snap-global="false"
     inkscape:pagecheckerboard="0"
     fit-margin-top="100"
     fit-margin-left="100"
     fit-margin-right="100"
     fit-margin-bottom="100"
     inkscape:showpageshadow="2"
     inkscape:deskcolor="#d1d1d1">
    <sodipodi:guide
       orientation="1,0"
       position="836.68785,-1314.8521"
       id="guide8060"
       inkscape:locked="false" />
    <sodipodi:guide
       orientation="0,1"
       position="746.61615,-1228.0188"
       id="guide8062"
       inkscape:locked="false" />
    <sodipodi:guide
       orientation="0,1"
       position="666.10605,-1281.0149"
       id="guide8064"
       inkscape:locked="false" />
    <sodipodi:guide
       orientation="1,0"
       position="790.08825,-1271.4906"
       id="guide8066"
       inkscape:locked="false" />
    <sodipodi:guide
       orientation="0,1"
       position="495.33865,-1388.6496"
       id="guide8080"
       inkscape:locked="false" />
    <inkscape:grid
       type="xygrid"
       id="grid8082"
       empspacing="5"
       visible="true"
       enabled="true"
       snapvisiblegridlinesonly="true"
       originx="-745.16305"
       originy="-216.85923"
       spacingy="1"
       spacingx="1"
       units="cm" />
    <sodipodi:guide
       orientation="1,0"
       position="685.35155,-1385.5467"
       id="guide8084"
       inkscape:locked="false" />
    <sodipodi:guide
       orientation="0,1"
       position="685.35155,-1432.5378"
       id="guide8104"
       inkscape:locked="false" />
  </sodipodi:namedview>
  <metadata
     id="metadata7">
    <rdf:RDF>
      <cc:Work
         rdf:about="">
        <dc:format>image/svg+xml</dc:format>
        <dc:type
           rdf:resource="http://purl.org/dc/dcmitype/StillImage" />
      </cc:Work>
    </rdf:RDF>
  </metadata>
  <g
     inkscape:groupmode="layer"
     id="layer2"
     inkscape:label="Layer"
     style="display:inline"
     transform="translate(-745.16305,-216.85923)">
    <rect
       style="display:inline;fill:#ffffff;fill-opacity:1;stroke:none;stroke-width:16.8238;stroke-linecap:butt;stroke-linejoin:round;stroke-miterlimit:4;stroke-dasharray:none;stroke-dashoffset:0;stroke-opacity:1;enable-background:new"
       id="rect3327-7-4"
       width="1511.811"
       height="367.73019"
       x="870.3562"
       y="2037.0765"
       ry="188.97638" />
    <path
       id="rect3327-7"
       style="display:inline;fill:#e95420;fill-opacity:1;stroke:none;stroke-width:28.7601;stroke-linecap:butt;stroke-linejoin:round;stroke-miterlimit:4;stroke-dasharray:none;stroke-dashoffset:0;stroke-opacity:1;enable-background:new"
       d="M 1054.1396 336.85923 C 949.4467 336.85923 865.16305 421.14288 865.16305 525.83579 L 865.16305 1222.5194 C 865.16305 1238.421 867.10741 1253.8517 870.77242 1268.5877 L 870.77242 1844.2127 L 2382.583 1844.2127 L 2382.583 769.57603 L 2376.9736 769.57603 L 2376.9736 525.83579 C 2376.9736 421.14288 2292.6899 336.85923 2187.997 336.85923 L 1054.1396 336.85923 z " />
    <g
       id="g2"
       transform="translate(1062.9999,184.00001)">
      <circle
         class="cls-3"
         cx="168.57928"
         cy="870.33319"
         r="146.41617"
         id="circle16"
         style="display:inline;fill:#ffffff;stroke-width:5.56715;enable-background:new" />
      <circle
         class="cls-3"
         cx="778.40546"
         cy="549.27539"
         r="146.41617"
         id="circle17"
         style="display:inline;fill:#ffffff;stroke-width:5.56715;enable-background:new" />
      <path
         class="cls-3"
         d="m 498.8229,1247.2297 c -105.4975,-22.6027 -193.6256,-89.9653 -243.1733,-185.4976 -39.0257,17.7592 -82.9506,23.1594 -125.2053,15.3653 59.9583,147.2513 187.1121,254.1963 343.2151,287.6549 34.238,7.3487 69.1441,10.9117 103.9945,10.689 -26.8894,-35.3515 -41.865,-77.9959 -42.8671,-122.4218 -12.0808,-1.3361 -24.1058,-3.2846 -35.9082,-5.8455 z"
         id="path17"
         style="display:inline;fill:#ffffff;stroke-width:5.56715;enable-background:new" />
      <circle
         class="cls-3"
         cx="745.44794"
         cy="1248.0092"
         r="146.41617"
         id="circle18"
         style="display:inline;fill:#ffffff;stroke-width:5.56715;enable-background:new" />
      <path
         class="cls-3"
         d="m 949.2058,1194.2304 c 45.5393,-57.3974 77.6061,-125.261 93.0271,-197.35575 26.9451,-125.762 1.7815,-257.70357 -69.0327,-364.70429 -16.8685,39.74948 -45.4836,73.31943 -82.3382,96.42312 39.5268,74.48854 51.5519,160.44537 33.8483,243.11767 -8.6848,40.47315 -23.9944,78.60825 -45.5393,113.45865 34.4607,28.2812 58.7891,66.3048 70.0905,109.1162 z"
         id="path18"
         style="display:inline;fill:#ffffff;stroke-width:5.56715;enable-background:new" />
      <path
         class="cls-3"
         d="m 157.278,660.34016 c 3.73,-0.22269 7.46,-0.27836 11.1343,-0.27836 14.8086,0 29.5616,1.55881 44.2032,4.73208 23.8831,5.12179 46.3187,14.14058 66.8615,26.94504 65.9152,-94.80865 172.3035,-151.70498 287.5436,-153.8205 0.6124,-11.07864 2.1155,-22.1016 4.398,-32.95756 6.7363,-31.34308 20.4315,-60.68198 40.0279,-85.78985 C 427.285,404.58506 248.3566,499.6164 157.2223,660.39583 Z"
         id="path19"
         style="display:inline;fill:#ffffff;stroke-width:5.56715;enable-background:new" />
    </g>
    <rect
       style="display:inline;fill:#ffffff;fill-opacity:1;stroke:none;stroke-width:16.8238;stroke-linecap:butt;stroke-linejoin:round;stroke-miterlimit:4;stroke-dasharray:none;stroke-dashoffset:0;stroke-opacity:1;enable-background:new"
       id="rect3327-7-4-9"
       width="1511.811"
       height="367.73019"
       x="870.89374"
       y="1853.7889" />
    <rect
       style="display:inline;fill:none;fill-opacity:1;stroke:#000000;stroke-width:40;stroke-linecap:butt;stroke-linejoin:round;stroke-miterlimit:4;stroke-dasharray:none;stroke-dashoffset:0;stroke-opacity:1;enable-background:new"
       id="rect3327"
       width="1511.811"
       height="2078.7402"
       x="865.16302"
       y="336.85922"
       ry="188.97638" />
    <path
       style="fill:#000000;stroke:#000000;stroke-width:32.2626;stroke-linecap:butt;stroke-linejoin:miter;stroke-miterlimit:4;stroke-dasharray:none;stroke-opacity:1"
       d="M 869.54611,1837.7541 H 2367.356"
       id="path14637" />
    <g
       id="g8106"
       transform="matrix(0.46905251,0,0,0.46905251,860.45699,3267.0689)"
       style="fill:#000000;fill-opacity:1">
      <g
         style="font-style:normal;font-variant:normal;font-weight:normal;font-stretch:normal;font-size:235.508px;line-height:125%;font-family:Ubuntu;-inkscape-font-specification:Ubuntu;text-align:end;letter-spacing:0px;word-spacing:0px;text-anchor:end;fill:#000000;fill-opacity:1;stroke:none"
         id="text3047">
        <path
           d="m 1208.6194,-2272.3531 21.8489,8.2796 c -15.026,28.6721 -30.5119,52.1309 -46.4577,70.3765 4.9064,0.3068 8.7395,0.4601 11.4995,0.46 35.4181,1e-4 70.6063,-2.8364 105.5648,-8.5096 -8.5865,-11.8059 -18.3226,-23.7653 -29.2086,-35.8782 l 16.7892,-15.4093 c 22.0787,24.6856 40.7844,49.1411 56.1172,73.3664 l -17.4791,17.4792 c -3.8334,-6.7463 -7.8965,-13.416 -12.1894,-20.009 -46.6112,7.053 -103.6484,10.6562 -171.1116,10.8094 l -4.3698,-25.5287 c 8.1262,0.7667 15.4092,1.38 21.8489,1.8399 15.1792,-18.7056 30.8951,-44.4643 47.1477,-77.2762 m 117.7542,117.7542 v 100.0451 h -23.2289 v -14.4893 h -124.8838 v 13.7993 h -23.2289 v -99.3551 h 171.3416 m -148.1127,65.0868 h 124.8838 v -44.8478 h -124.8838 v 44.8478"
           style="line-height:125%;font-family:DFPLiHei-Md;-inkscape-font-specification:DFPLiHei-Md;text-align:center;writing-mode:lr-tb;text-anchor:middle;fill:#000000;fill-opacity:1"
           id="path10114"
           inkscape:connector-curvature="0" />
        <path
           d="m 1398.0421,-2267.0634 c 10.8861,5.6733 21.0056,12.4196 30.3585,20.239 l -13.1093,19.3191 c -9.1996,-9.6594 -18.6291,-17.3257 -28.2886,-22.9989 l 11.0394,-16.5592 m -8.2795,56.1173 c 12.266,5.9798 23.5354,13.0328 33.8083,21.1589 l -12.8794,19.3191 c -10.4262,-9.9661 -21.0823,-17.8624 -31.9684,-23.6889 l 11.0395,-16.7891 m 16.5591,51.5174 19.3191,9.1996 c -7.3597,37.1048 -16.2526,68.1533 -26.6787,93.1454 l -16.7892,-15.8692 c 8.5862,-22.3856 16.6358,-51.2108 24.1488,-86.4758 m 41.398,-112.9244 14.4893,5.2897 c -4.5999,12.1129 -9.2763,22.0791 -14.0293,29.8986 3.6797,-0.1532 7.0529,-0.2299 10.1195,-0.23 3.2197,-5.5196 6.4396,-11.346 9.6595,-17.4792 l 11.0395,5.0598 v -7.1297 h 23.2288 c -2.3,-4.5996 -4.8299,-8.8927 -7.5896,-12.8793 l 16.3292,-1.61 c 2.7597,4.6 5.2896,9.4298 7.5896,14.4893 h 20.929 v 14.0293 h -60.487 v -5.2897 c -8.2797,17.0193 -16.2527,31.2019 -23.9189,42.5479 4.2931,-0.4599 8.2795,-1.1498 11.9594,-2.0699 -0.6134,-2.7597 -1.2267,-5.2896 -1.8399,-7.5896 l 11.0395,-3.9098 c 2.2998,7.973 4.3697,17.1726 6.2097,27.5986 l -11.9594,2.7599 c -0.3068,-2.2998 -0.6901,-4.523 -1.15,-6.6697 -9.8129,2.4533 -24.0722,4.6765 -42.7779,6.6697 l -2.0699,-14.4893 c 3.6798,-0.1532 7.283,-0.3065 10.8095,-0.46 4.9064,-5.9796 9.7361,-12.5726 14.4893,-19.779 -6.5931,0.6134 -14.336,1.2267 -23.2289,1.8399 l -2.0699,-14.9493 h 7.8197 c 4.9063,-8.8927 10.0427,-20.7754 15.4092,-35.6482 m -15.8692,86.4757 11.9594,2.7599 c -2.4533,9.5063 -5.5198,18.3992 -9.1996,26.6787 l -11.9594,-3.9098 c 3.6798,-6.7463 6.7463,-15.2559 9.1996,-25.5288 m 25.9887,1.8399 c 2.1465,6.2865 3.6031,14.7961 4.3698,25.5288 l -12.6494,1.1499 c -0.3067,-11.1927 -1.2267,-19.7789 -2.7599,-25.7587 l 11.0395,-0.92 m 16.3292,-3.9098 c 2.9131,7.6664 5.3663,16.2526 7.3596,25.7588 l -11.0394,2.7598 c -1.5334,-8.8928 -3.6799,-17.4024 -6.4397,-25.5287 l 10.1195,-2.9899 m 10.3495,-47.6076 h 48.5276 v 11.0394 h -48.5276 v -11.0394 m 0,19.319 h 48.5276 v 11.0395 h -48.5276 v -11.0395 m 0.9199,19.3191 h 47.6077 v 37.4881 h -47.6077 v -37.4881 m 33.8084,24.6088 v -11.7295 h -20.239 v 11.7295 h 20.239 m 39.558,-99.1252 14.9493,5.2898 c -4.7533,12.1129 -9.5064,22.1557 -14.2593,30.1285 3.9863,-0.1532 7.7427,-0.2298 11.2694,-0.23 2.913,-4.5996 5.6729,-9.3527 8.2796,-14.2593 l 14.9493,5.7497 c -10.2731,16.2527 -20.5459,29.6687 -30.8185,40.2481 5.8262,-0.4599 11.2692,-0.9966 16.3292,-1.61 -0.9202,-3.833 -1.9168,-7.5895 -2.9899,-11.2694 l 11.7295,-3.6798 c 3.2196,8.893 6.0561,19.0125 8.5095,30.3585 l -12.8793,2.7598 c -0.4602,-2.4531 -1.0735,-4.753 -1.8399,-6.8996 -9.9664,1.84 -24.6857,3.5266 -44.1578,5.0597 l -1.84,-13.5693 c 3.5264,-0.1532 6.9762,-0.2299 10.3495,-0.23 5.3663,-5.8263 10.656,-12.5726 15.8692,-20.239 -6.7465,0.7668 -14.8727,1.4567 -24.3787,2.0699 l -1.84,-13.7993 h 7.5897 c 4.7529,-9.0461 9.8126,-21.0055 15.1792,-35.8783 m -17.4791,87.3957 13.1093,2.5299 c -1.8401,10.1196 -3.9866,19.3958 -6.4396,27.8286 l -12.8794,-4.8297 c 2.2997,-6.7463 4.3696,-15.2558 6.2097,-25.5288 m 30.3585,0 c 1.993,6.2865 3.2963,14.7961 3.9098,25.5288 l -14.0293,1.1499 c -0.1535,-11.1927 -0.7668,-19.7789 -1.8399,-25.7587 l 11.9594,-0.92 m 19.319,-2.7598 c 2.453,7.513 4.5996,16.0226 6.4397,25.5287 l -13.5693,3.9098 c -1.5335,-9.0461 -3.4501,-17.6324 -5.7497,-25.7587 l 12.8793,-3.6798 m -158.2322,36.5682 h 151.1026 v 38.6381 h -124.8839 l -3.4498,10.1195 h 135.4633 c -0.6135,19.0124 -3.1434,31.1251 -7.5896,36.3382 -4.6,5.9797 -15.2561,8.9695 -31.9684,8.9695 h -42.3179 l -2.5299,-17.7091 c 20.0855,0.6133 35.0348,0.9199 44.8478,0.92 5.8262,-10e-5 10.196,-0.7667 13.1093,-2.2999 2.4531,-1.8399 3.9096,-5.5964 4.3698,-11.2695 h -136.1533 l 9.1996,-39.558 h 122.5839 v -9.1996 h -131.7835 v -14.9492"
           style="line-height:125%;font-family:DFPLiHei-Md;-inkscape-font-specification:DFPLiHei-Md;text-align:center;writing-mode:lr-tb;text-anchor:middle;fill:#000000;fill-opacity:1"
           id="path10116"
           inkscape:connector-curvature="0" />
        <path
           d="m 1686.8483,-2270.7432 c 3.8331,10.4263 7.5129,22.1557 11.0395,35.1883 h 32.8883 v 20.239 c -9.3529,18.2459 -18.5525,33.2718 -27.5986,45.0778 14.1059,9.1996 27.0619,19.5491 38.8681,31.0484 l -13.1094,19.3191 c -9.9662,-11.0394 -20.0857,-20.6223 -30.3585,-28.7486 v 93.3754 h -21.8489 v -85.3258 c -9.3529,9.1996 -20.0857,18.5524 -32.1984,28.0586 l -7.3596,-24.6088 c 16.5591,-11.9593 29.1318,-22.8454 37.7181,-32.6584 9.5061,-8.5861 19.8556,-23.4587 31.0485,-44.6178 h -68.0767 v -21.1589 h 38.6381 c -3.5265,-11.4993 -7.4363,-22.3088 -11.7294,-32.4284 l 22.0789,-2.7599 m 48.7576,56.3472 h 43.9278 v -54.5073 h 23.2289 v 54.5073 h 46.9177 v 22.079 h -46.9177 v 107.6346 h 51.2875 v 21.849 h -132.2435 v -21.849 h 57.7271 v -107.6346 h -43.9278 v -22.079"
           style="line-height:125%;font-family:DFPLiHei-Md;-inkscape-font-specification:DFPLiHei-Md;text-align:center;writing-mode:lr-tb;text-anchor:middle;fill:#000000;fill-opacity:1"
           id="path10118"
           inkscape:connector-curvature="0" />
        <path
           d="m 1898.1805,-2264.9935 h 91.0755 v 40.478 h 10.1195 v 18.3991 h -10.1195 v 41.398 h -52.2075 c -0.46,1.84 -0.92,3.6032 -1.3799,5.2897 -1.2267,4.7532 -2.9132,9.4296 -5.0597,14.0293 h 59.567 v 87.3957 h -20.239 v -11.0394 h -34.7283 v 13.7993 h -20.239 v -64.1668 c -5.0598,6.2863 -10.6561,12.266 -16.7891,17.9391 l -13.5694,-17.4792 c 15.0259,-13.4926 25.1454,-27.9819 30.3585,-43.4678 0.3066,-0.9199 0.5366,-1.6865 0.69,-2.2999 h -22.9989 v -18.3991 h 27.5987 c 1.2265,-7.0529 2.2998,-14.7192 3.2198,-22.9989 h -33.5783 v -18.3991 h 34.9582 c 0.46,-7.0528 0.7666,-14.4891 0.92,-22.3089 h -27.5986 v -18.1691 m 37.0281,176.6313 h 34.7283 v -36.7982 h -34.7283 v 36.7982 m 10.8095,-158.4622 c -0.1534,7.9731 -0.46,15.4094 -0.92,22.3089 h 23.9189 v -22.3089 h -22.9989 m -2.2999,40.708 c -0.7667,8.2797 -1.7633,15.946 -2.9898,22.9989 h 28.2886 v -22.9989 h -25.2988 m 81.646,-63.7068 c 6.5928,11.0396 12.4192,22.769 17.4791,35.1882 l -19.319,8.2796 c -5.3666,-13.9525 -11.2696,-26.2185 -17.7092,-36.7982 l 19.5491,-6.6696 m 50.3675,0 20.239,4.8297 c -4.7533,13.9528 -10.8863,26.8322 -18.3991,38.6381 l -20.239,-7.3596 c 7.0528,-9.5061 13.1858,-21.5421 18.3991,-36.1082 m -72.4464,47.1476 h 96.5952 v 19.3191 h -37.7181 v 28.5186 h 34.7283 v 19.319 h -34.7283 v 29.4386 h 41.3979 v 20.239 h -41.3979 v 50.5975 h -21.159 v -50.5975 h -42.5479 v -20.239 h 42.5479 v -29.4386 h -34.2683 v -19.319 h 34.2683 v -28.5186 h -37.7181 v -19.3191"
           style="line-height:125%;font-family:DFPLiHei-Md;-inkscape-font-specification:DFPLiHei-Md;text-align:center;writing-mode:lr-tb;text-anchor:middle;fill:#000000;fill-opacity:1"
           id="path10120"
           inkscape:connector-curvature="0" />
      </g>
    </g>
    <g
       id="g1"
       transform="translate(-14.708469,19.831299)">
      <rect
         class="cls-1"
         x="1099.8715"
         y="547.02795"
         width="1077.6343"
         height="1077.6343"
         id="rect16"
         style="fill:none;stroke-width:5.56715" />
    </g>
    <text
       xml:space="preserve"
       style="font-weight:500;font-size:256px;font-family:Roboto;-inkscape-font-specification:'Roboto Medium';text-align:center;writing-mode:lr-tb;direction:ltr;text-anchor:middle;fill:#000000"
       x="1614.2847"
       y="2145.5149"
       id="text1"><tspan
         sodipodi:role="line"
         id="tspan1"
         x="1614.2847"
         y="2145.5149"
         style="font-style:normal;font-variant:normal;font-weight:normal;font-stretch:normal;font-size:256px;font-family:Ubuntu;-inkscape-font-specification:Ubuntu">Ubuntu-TW</tspan></text>
  </g>
</svg>
